<svg width="60" height="60" viewBox="0 0 60 60" fill="none" xmlns="http://www.w3.org/2000/svg">
<path d="M0 14C0 6.26801 6.26801 0 14 0H34C41.732 0 48 6.26801 48 14V34C48 41.732 41.732 48 34 48H14C6.26801 48 0 41.732 0 34V14Z" fill="#5E503F"/>
<path d="M14 51C13.6325 51 13.2678 50.9883 12.9061 50.9654C14.9098 56.2463 20.0165 60 26 60H46C53.732 60 60 53.732 60 46V26C60 20.0165 56.2463 14.9098 50.9654 12.9061C50.9883 13.2678 51 13.6325 51 14V34C51 43.3888 43.3888 51 34 51H14Z" fill="#927E67"/>
<path d="M9.48 20.92L9.5 20.12C9.5 19.8667 9.47333 19.7133 9.42 19.66C9.36667 19.6067 9.3 19.56 9.22 19.52C9.08667 19.4533 8.88 19.42 8.6 19.42C8.33333 19.42 8.12 19.4267 7.96 19.44C7.8 19.44 7.66667 19.4467 7.56 19.46C7.46667 19.46 7.36667 19.4733 7.26 19.5C7.16667 19.5133 7.1 19.5267 7.06 19.54C6.86 19.6067 6.70667 19.6533 6.6 19.68H5.62L5.06 17.66C5.78 17.1933 6.88 16.96 8.36 16.96C9.28 16.96 10.0067 17.0267 10.54 17.16C11.0733 17.28 11.4733 17.52 11.74 17.88C12.0067 18.24 12.1733 18.64 12.24 19.08C12.32 19.5067 12.36 19.9333 12.36 20.36C12.36 20.7733 12.36 21.08 12.36 21.28C12.3733 21.48 12.3733 21.6133 12.36 21.68C12.36 21.7333 12.3467 21.8733 12.32 22.1C12.2933 22.3133 12.2533 22.4933 12.2 22.64C12.16 22.7733 12.0867 22.9867 11.98 23.28C11.8867 23.56 11.7667 23.8267 11.62 24.08C11.4867 24.3333 11.3133 24.6533 11.1 25.04C10.8867 25.4267 10.64 25.8267 10.36 26.24C9.52 27.5333 8.79333 28.58 8.18 29.38H12.38L12.7 29.7V32H4.78V29.52C6.80667 26.6267 8.09333 24.7 8.64 23.74C9.2 22.7667 9.48 21.8267 9.48 20.92ZM16.9322 17.16C17.3989 17.0267 17.9855 16.96 18.6922 16.96C19.8789 16.96 20.7789 17.16 21.3922 17.56C22.0055 17.96 22.4522 18.7 22.7322 19.78C23.0122 20.86 23.1522 22.46 23.1522 24.58C23.1522 27.5 22.8322 29.52 22.1922 30.64C21.5655 31.76 20.3989 32.32 18.6922 32.32C16.9989 32.32 15.8322 31.76 15.1922 30.64C14.5522 29.52 14.2322 27.6133 14.2322 24.92C14.2322 22.2267 14.4189 20.3267 14.7922 19.22C15.1655 18.1133 15.8789 17.4267 16.9322 17.16ZM17.2122 21.48C17.1589 21.8933 17.1255 22.3133 17.1122 22.74C17.0989 23.1533 17.0922 23.88 17.0922 24.92C17.0922 25.96 17.1189 26.8267 17.1722 27.52C17.2389 28.2133 17.3189 28.6733 17.4122 28.9C17.5189 29.1267 17.6589 29.24 17.8322 29.24C18.2722 29.24 18.6055 29.2333 18.8322 29.22C19.0722 29.1933 19.2989 29.12 19.5122 29C19.7389 28.8667 19.8922 28.72 19.9722 28.56C20.0655 28.4 20.1455 28.12 20.2122 27.72C20.3055 27.16 20.3522 26.1733 20.3522 24.76C20.3522 23.3467 20.3189 22.2933 20.2522 21.6C20.1989 20.9067 20.1189 20.4467 20.0122 20.22C19.9055 19.98 19.7589 19.86 19.5722 19.86C19.1455 19.86 18.8055 19.8733 18.5522 19.9C18.3122 19.9267 18.0855 20.0133 17.8722 20.16C17.6722 20.2933 17.5255 20.44 17.4322 20.6C17.3522 20.76 17.2789 21.0533 17.2122 21.48ZM33.1028 25.84H31.9428V32H29.3828L29.0628 31.68V25.84H24.6028L24.2828 25.52L24.3028 16.96H26.4828L26.8028 17.28L27.1228 23.36H29.0628L29.0828 16.96H31.3028L31.6228 17.28L31.9428 23.36H32.7828L33.1028 23.68V25.84ZM42.768 27.56C42.768 29.0133 42.4213 30.1733 41.728 31.04C41.0346 31.8933 39.968 32.32 38.528 32.32C35.7146 32.32 34.308 30.7333 34.308 27.56C34.308 26.9333 34.4746 26.3 34.808 25.66C35.1413 25.0067 35.588 24.4533 36.148 24C35.7346 23.56 35.3946 23.0533 35.128 22.48C34.8746 21.8933 34.748 21.32 34.748 20.76C34.748 19.56 35.0546 18.5667 35.668 17.78C36.2946 16.9933 37.2213 16.6 38.448 16.6C41.0346 16.6 42.328 17.9867 42.328 20.76C42.328 21.92 41.8546 23 40.908 24C41.468 24.44 41.9146 24.9867 42.248 25.64C42.5946 26.2933 42.768 26.9333 42.768 27.56ZM37.428 20.46C37.428 21.3667 37.7946 22.1267 38.528 22.74C39.288 22.1267 39.668 21.3667 39.668 20.46C39.668 19.8733 39.5546 19.4133 39.328 19.08C39.1146 18.7467 38.848 18.58 38.528 18.58C38.2213 18.58 37.9613 18.7467 37.748 19.08C37.5346 19.4133 37.428 19.8733 37.428 20.46ZM38.528 25.42C38.0213 25.8467 37.648 26.24 37.408 26.6C37.1813 26.9467 37.068 27.3933 37.068 27.94C37.068 28.4867 37.188 28.98 37.428 29.42C37.6813 29.86 38.048 30.08 38.528 30.08C39.0213 30.08 39.388 29.86 39.628 29.42C39.8813 28.98 40.008 28.4867 40.008 27.94C40.008 27.3933 39.888 26.9467 39.648 26.6C39.408 26.24 39.0346 25.8467 38.528 25.42Z" fill="white"/>
</svg>
